# xmcd
#
# Track frame offsets:
#	150
#	16698
#	31558
#	44718
#	58609
#	71658
#	85679
#	106753
#	123163
#	137654
#	150474
#	167397
#	181181
#	196791
#	209167
#	223980
#	240079
#	253047
#	267822
#	284150
#	303887
#
# Disc length: 4251 seconds
#
# Revision: 0
# Processed by: cddbd v1.5.2PL0 Copyright (c) Steve Scherf et al.
# Submitted via: EZCDAudioConverter 4.0.5.1
#
DISCID=1a109915
DTITLE=Various Artist - MULTI MUSIC HOTT COUNTRY # 286 CAN
DYEAR=2019
DGENRE=COUNTRY
TTITLE0=Chris Janson - Done
TTITLE1=Florida Georgia Line - Blessings
TTITLE2=Brantley Gilbert - Fire't Up
TTITLE3=Shawn Austin - The Little Things
TTITLE4=Morgan Evans - Diamonds
TTITLE5=Gord Bamford ft. Jess Moskaluke - To Get To You
TTITLE6=Aaron Watson - Country Radio
TTITLE7=Jojo Mason - As If He Won't
TTITLE8=Matt Stell - Everywhere But On
TTITLE9=Mitchell Tenpenny ft. Seaforth - Anything She Says
TTITLE10=High Valley - Your Mama
TTITLE11=Jackson Michelson - Stay Over
TTITLE12=Kadooh - Wiser Than Me
TTITLE13=Joe Lasher - That's Gonna Get You Kissed
TTITLE14=Genevieve Fisher - 1943 (Nanna's Song)
TTITLE15=Shane Owens - Hard Luck Girl
TTITLE16=Kristin Carter - Karma
TTITLE17=Zach Stone - Hands On
TTITLE18=Chris Henderson - Bad Memory
TTITLE19=Keith Urban - I'll Be Your Santa Tonight
TTITLE20=Gord Bamford - Storybook Christmas
EXTD=
EXTT0=
EXTT1=
EXTT2=
EXTT3=
EXTT4=
EXTT5=
EXTT6=
EXTT7=
EXTT8=
EXTT9=
EXTT10=
EXTT11=
EXTT12=
EXTT13=
EXTT14=
EXTT15=
EXTT16=
EXTT17=
EXTT18=
EXTT19=
EXTT20=
PLAYORDER=
